<svg xmlns="http://www.w3.org/2000/svg" width="116" height="29" viewBox="0 0 116 29" fill="none"><path d="M39.3931 22.7999C39.9234 22.814 40.4535 22.7624 40.9714 22.6462C41.3267 22.5635 41.6637 22.4143 41.9649 22.2064C42.198 22.0423 42.379 21.8132 42.4858 21.5469C42.5845 21.2746 42.6326 20.9861 42.6278 20.6961C42.6278 20.0323 42.3188 19.48 41.701 19.0393C41.0831 18.5986 40.0242 18.1244 38.5245 17.6167C37.8669 17.3829 37.2107 17.1142 36.5559 16.8105C35.9148 16.5163 35.3195 16.129 34.7888 15.6609C34.2594 15.1935 33.8255 14.6258 33.5114 13.9897C33.1821 13.3353 33.018 12.5392 33.0189 11.6014C33.0053 10.7273 33.1832 9.86113 33.5398 9.06505C33.8821 8.32034 34.3868 7.66393 35.0159 7.14522C35.7033 6.59133 36.4905 6.17796 37.3337 5.92807C38.3295 5.63002 39.3639 5.48471 40.4023 5.49697C42.4664 5.45229 44.5082 5.93672 46.3379 6.90524L45.0392 10.5164C44.4384 10.2065 43.8137 9.94654 43.1714 9.73901C42.3684 9.49812 41.5334 9.38469 40.6961 9.40275C39.6145 9.40275 38.8377 9.55411 38.3655 9.85684C37.8934 10.1596 37.6568 10.6237 37.6559 11.2493C37.6447 11.5819 37.736 11.9098 37.917 12.1877C38.1148 12.465 38.3658 12.6991 38.6551 12.876C39.0034 13.0968 39.3717 13.2835 39.755 13.4335C40.1695 13.6002 40.6279 13.7698 41.1304 13.9465C42.1712 14.3374 43.0786 14.7235 43.8527 15.1048C44.5612 15.441 45.2111 15.8914 45.7773 16.4383C46.2853 16.9405 46.6762 17.5513 46.9212 18.2259C47.1907 19.0276 47.318 19.8712 47.2974 20.7177C47.2974 22.6145 46.6412 24.0856 45.3288 25.1307C44.0164 26.1759 42.0378 26.6985 39.3931 26.6985C38.5894 26.7038 37.7863 26.6501 36.9902 26.5376C36.3501 26.4456 35.7163 26.3131 35.0925 26.141C34.2506 25.9117 33.44 25.5772 32.6797 25.1451L33.9571 21.5095C34.6616 21.8863 35.4039 22.186 36.1712 22.4033C37.0455 22.6677 38.1195 22.7999 39.3931 22.7999Z" fill="#0B3E68"></path><path d="M54.7972 16.8172C55.222 16.3506 55.6606 15.8649 56.1129 15.36C56.5652 14.8552 57.0038 14.3546 57.4286 13.8584C57.8525 13.3621 58.2528 12.8913 58.6294 12.4458C59.0055 11.9989 60.131 10.434 60.4007 10.1064H64.9809C64.0782 11.8308 62.7099 13.6055 61.732 14.6875C60.7541 15.7696 59.691 16.8861 58.5329 18.0372C59.171 18.6282 59.7703 19.2609 60.3269 19.9312C60.9457 20.6659 61.5442 21.4247 62.1223 22.2074C62.7005 22.9901 63.2313 23.7727 63.7148 24.5554C64.1974 25.3381 64.6029 26.0528 64.9312 26.6994H59.9706C59.6612 26.1907 59.3097 25.6274 58.9161 25.0095C58.5224 24.3916 58.1033 23.7747 57.6585 23.1587C57.2138 22.5417 56.7464 21.9492 56.2563 21.3811C55.8116 20.8605 55.3235 20.3797 54.7972 19.9441V26.698H50.4824V1.81055H54.7972V16.8172Z" fill="#0B3E68"></path><path d="M80.7763 18.3731C80.7895 19.5287 80.6095 20.6782 80.2441 21.7731C79.9183 22.7505 79.3943 23.6483 78.7055 24.4085C78.0297 25.1403 77.207 25.717 76.2926 26.0999C75.2927 26.5116 74.2211 26.7154 73.1417 26.6991C72.0717 26.7138 71.0097 26.51 70.0192 26.0999C69.1049 25.7168 68.2822 25.1401 67.6063 24.4085C66.9171 23.6445 66.3862 22.7484 66.0451 21.7731C65.658 20.6828 65.4657 19.5316 65.4773 18.3731C65.4626 17.2188 65.658 16.0716 66.0536 14.989C66.4076 14.02 66.9511 13.1334 67.6518 12.3822C68.3388 11.6589 69.1667 11.0878 70.0831 10.7053C71.0533 10.2988 72.0946 10.095 73.1446 10.106C74.2043 10.0934 75.2557 10.2972 76.2359 10.7053C77.1474 11.0868 77.9695 11.6582 78.6487 12.3822C79.337 13.136 79.8681 14.0226 80.21 14.989C80.5975 16.0736 80.7893 17.2198 80.7763 18.3731ZM76.2799 18.3731C76.2799 16.9945 76.0088 15.911 75.4666 15.1226C74.9244 14.3342 74.1504 13.9399 73.1446 13.9399C72.1387 13.9399 71.3595 14.3342 70.8069 15.1226C70.2543 15.911 69.9785 16.9945 69.9795 18.3731C69.9795 19.7507 70.2553 20.8438 70.8069 21.6523C71.3586 22.4609 72.1378 22.8652 73.1446 22.8652C74.1504 22.8652 74.9244 22.4609 75.4666 21.6523C76.0088 20.8438 76.2799 19.7507 76.2799 18.3731Z" fill="#0B3E68"></path><path d="M90.4698 26.5816C89.2151 26.5629 87.5886 26.4264 86.8079 26.1721C86.1145 25.9702 85.4789 25.6031 84.9543 25.1015C84.4996 24.6412 84.1789 24.063 84.0275 23.4303C83.8553 22.7058 83.7728 21.9624 83.7819 21.2173V1.81055H88.0952V20.3378C88.0926 20.6918 88.1216 21.0453 88.1818 21.394C88.2295 21.6805 88.3438 21.9515 88.5154 22.1844C88.7039 22.4186 88.9481 22.6006 89.225 22.7132C89.6229 22.8695 90.0434 22.9583 90.4698 22.9762V26.5816Z" fill="#0B3E68"></path><path d="M99.6196 26.5816C98.3635 26.5629 96.7384 26.4264 95.9563 26.1721C95.263 25.9699 94.6274 25.6028 94.1027 25.1015C93.6484 24.6411 93.3282 24.0628 93.1773 23.4303C93.0046 22.7058 92.9216 21.9625 92.9303 21.2173V1.81055H97.2451V20.3378C97.2417 20.6918 97.2707 21.0454 97.3317 21.394C97.3787 21.6807 97.4931 21.9518 97.6652 22.1844C97.8536 22.4188 98.0978 22.6008 98.3749 22.7132C98.7732 22.8693 99.1942 22.9581 99.621 22.9762L99.6196 26.5816Z" fill="#0B3E68"></path><path d="M114.619 14.8088V26.2617C114.619 26.2617 109.61 26.6928 108.046 26.6928C107.145 26.6881 106.247 26.5855 105.367 26.3867C104.629 26.2223 103.928 25.9155 103.304 25.4828C102.73 25.0887 102.271 24.5471 101.972 23.9136C101.663 23.2689 101.509 22.4776 101.51 21.5397C101.51 20.6401 101.688 19.8776 102.045 19.252C102.391 18.6394 102.884 18.1253 103.478 17.7575C104.113 17.3722 104.808 17.0995 105.534 16.9514C106.324 16.7832 107.13 16.6999 107.938 16.7028C108.436 16.6999 108.933 16.7239 109.428 16.7746C109.785 16.8104 110.139 16.8743 110.486 16.9657V15.8161C110.485 15.6101 110.444 15.4063 110.365 15.2163C110.287 15.0262 110.172 14.8538 110.028 14.7087C109.883 14.5636 109.712 14.4488 109.523 14.3708C109.335 14.2928 109.133 14.2532 108.93 14.2541H102.728V10.1055H109.966C110.577 10.1045 111.182 10.2255 111.746 10.4614C112.31 10.6974 112.823 11.0437 113.256 11.4805C113.688 11.9173 114.03 12.4361 114.264 13.0072C114.498 13.5783 114.619 14.1905 114.619 14.8088ZM108.335 23.2397C108.76 23.2397 109.166 23.2296 109.552 23.2095C109.862 23.1985 110.171 23.1692 110.478 23.1218V19.8167C110.304 19.7779 110.044 19.7391 109.696 19.6989C109.379 19.6621 109.06 19.6429 108.741 19.6414C108.359 19.6399 107.977 19.6644 107.597 19.7147C107.271 19.754 106.953 19.8477 106.656 19.9921C106.399 20.1179 106.179 20.3102 106.019 20.5496C105.857 20.8127 105.776 21.1191 105.788 21.4291C105.788 22.1131 106.014 22.5868 106.467 22.8502C106.921 23.1137 107.543 23.2435 108.335 23.2397Z" fill="#0B3E68"></path><path d="M21.1622 26.6994H6.49483C5.17996 26.6994 3.91894 26.1706 2.98919 25.2293C2.05944 24.2879 1.53711 23.0112 1.53711 21.68V6.83C1.53711 5.49876 2.05944 4.22204 2.98919 3.28071C3.91894 2.33938 5.17996 1.81055 6.49483 1.81055H21.1622C21.8133 1.81036 22.458 1.94006 23.0596 2.19225C23.6612 2.44443 24.2078 2.81415 24.6682 3.28029C25.1286 3.74643 25.4938 4.29984 25.7429 4.90891C25.992 5.51799 26.1201 6.17078 26.1199 6.83V21.68C26.1199 22.3391 25.9916 22.9919 25.7425 23.6008C25.4934 24.2098 25.1282 24.7632 24.6678 25.2293C24.2074 25.6954 23.6609 26.0651 23.0594 26.3174C22.4579 26.5696 21.8132 26.6994 21.1622 26.6994Z" fill="#0B3E68"></path><path d="M16.9565 17.4238L14.2598 18.7674C14.3245 18.7464 14.3876 18.7205 14.4485 18.6898L16.9565 17.4238Z" fill="white"></path><path d="M13.2022 18.6899L9.5957 16.8649C9.38243 16.7569 9.14545 16.7059 8.90724 16.7167C8.66903 16.7275 8.43749 16.7997 8.2346 16.9266C8.0317 17.0534 7.86418 17.2306 7.74792 17.4414C7.63166 17.6522 7.57053 17.8895 7.57031 18.1309C7.57081 18.3947 7.64401 18.6531 7.78167 18.877C7.91933 19.1009 8.116 19.2815 8.34952 19.3984L13.2079 21.8585C13.4022 21.957 13.6165 22.0083 13.8338 22.0083C14.0511 22.0083 14.2654 21.957 14.4597 21.8585L19.3181 19.3984C19.5506 19.2807 19.7461 19.0998 19.8827 18.8759C20.0193 18.652 20.0917 18.3941 20.0916 18.1309V16.7155C20.0914 16.4508 20.0182 16.1915 19.8802 15.9668L16.962 17.4239L14.4526 18.6899C14.3917 18.7206 14.3286 18.7465 14.2639 18.7675H14.2568C13.9087 18.8818 13.5303 18.854 13.2022 18.6899Z" fill="#2DC9E2"></path><path d="M7.79102 12.5592C7.92873 12.7748 8.12147 12.9486 8.34881 13.0622L16.9613 17.4221L19.8738 15.9664C19.7361 15.7432 19.5394 15.5635 19.306 15.4476L10.6992 11.0877L13.2015 9.82031L7.79102 12.5592Z" fill="url(#paint0_linear_979_1124)"></path><path d="M14.4528 9.82127L18.0593 11.6463C18.2242 11.7353 18.405 11.7901 18.5911 11.8073C18.7772 11.8244 18.9649 11.8037 19.1429 11.7463C19.321 11.6889 19.4859 11.5959 19.6279 11.4729C19.7699 11.3499 19.8861 11.1994 19.9698 11.0302C20.0534 10.861 20.1027 10.6765 20.1147 10.4877C20.1268 10.2989 20.1014 10.1095 20.04 9.93083C19.9786 9.75212 19.8825 9.58767 19.7573 9.44718C19.6322 9.30669 19.4805 9.19301 19.3112 9.11283L14.4528 6.65268C14.2583 6.55483 14.0441 6.50391 13.8269 6.50391C13.6097 6.50391 13.3955 6.55483 13.201 6.65268L8.34971 9.11283C8.11724 9.23053 7.92174 9.41144 7.78512 9.6353C7.64849 9.85916 7.57614 10.1171 7.57617 10.3803V11.7957C7.57672 12.0667 7.65352 12.3319 7.79759 12.5602L13.2024 9.82127C13.3965 9.72301 13.6106 9.67185 13.8276 9.67185C14.0446 9.67185 14.2587 9.72301 14.4528 9.82127Z" fill="#2DC9E2"></path><defs><linearGradient id="paint0_linear_979_1124" x1="7.79102" y1="13.6212" x2="19.8738" y2="13.6212" gradientUnits="userSpaceOnUse"><stop stop-color="#0081AA"></stop><stop offset="0.25" stop-color="#00AADA"></stop><stop offset="0.5" stop-color="#1AB4D8"></stop><stop offset="0.75" stop-color="#00AADA"></stop><stop offset="1" stop-color="#0081AA"></stop></linearGradient></defs></svg>